{
	"asset":{
		"generator":"Khronos glTF Blender I/O v4.4.56",
		"version":"2.0"
	},
	"extensionsUsed":[
		"KHR_materials_specular",
		"KHR_materials_ior"
	],
	"scene":0,
	"scenes":[
		{
			"name":"Scene",
			"nodes":[
				103
			]
		}
	],
	"nodes":[
		{
			"name":"Active View",
			"rotation":[
				0.47792115807533264,
				-0.3470839560031891,
				0.21313926577568054,
				0.778264582157135
			],
			"scale":[
				1000.0000610351562,
				999.9999389648438,
				999.9998779296875
			],
			"translation":[
				752.650390625,
				-645.5038452148438,
				-618.2244873046875
			]
		},
		{
			"mesh":0,
			"name":"Geom3D_leg"
		},
		{
			"children":[
				1
			],
			"name":"leg",
			"rotation":[
				0,
				1,
				0,
				1.9142846669762661e-16
			],
			"translation":[
				11.5,
				-4.724409580230713,
				-10
			]
		},
		{
			"mesh":1,
			"name":"Geom3D_leg.001"
		},
		{
			"children":[
				3
			],
			"name":"leg_1",
			"translation":[
				-11.5,
				-4.724410057067871,
				10.000000953674316
			]
		},
		{
			"name":"leg_1.001",
			"rotation":[
				0,
				-0.7071068286895752,
				0,
				0.7071067094802856
			],
			"translation":[
				-10,
				-4.724410057067871,
				-11.5
			]
		},
		{
			"mesh":2,
			"name":"Geom3D_leg.003"
		},
		{
			"children":[
				6
			],
			"name":"leg_1.002",
			"rotation":[
				0,
				0.7071068286895752,
				0,
				0.7071067094802856
			],
			"translation":[
				10,
				-4.724410057067871,
				11.500000953674316
			]
		},
		{
			"name":"Node_132",
			"rotation":[
				0,
				-0.7071068286895752,
				0,
				0.7071067094802856
			],
			"translation":[
				11.5,
				-38.22441482543945,
				-11.500000953674316
			]
		},
		{
			"mesh":3,
			"name":"Geom3D_.001",
			"translation":[
				0,
				-2.37007589021232e-06,
				0
			]
		},
		{
			"children":[
				9
			],
			"name":"Node_134",
			"rotation":[
				0,
				-0.7071068286895752,
				0,
				0.7071067094802856
			],
			"translation":[
				11.5,
				-36.72441482543945,
				-11.500000953674316
			]
		},
		{
			"mesh":4,
			"name":"Geom3D_.002",
			"translation":[
				0,
				-5.258791134110652e-06,
				0
			]
		},
		{
			"children":[
				11
			],
			"name":"Node_136",
			"rotation":[
				0,
				-0.7071068286895752,
				0,
				0.7071067094802856
			],
			"translation":[
				11.5,
				-36.72441482543945,
				10.000000953674316
			]
		},
		{
			"mesh":5,
			"name":"Geom3D_side"
		},
		{
			"children":[
				13
			],
			"name":"side",
			"translation":[
				-10,
				-20.724409103393555,
				10
			]
		},
		{
			"mesh":6,
			"name":"Geom3D_side.001"
		},
		{
			"children":[
				15
			],
			"name":"side_1",
			"rotation":[
				0,
				1,
				0,
				1.9142846669762661e-16
			],
			"translation":[
				10,
				-20.724409103393555,
				-10.000000953674316
			]
		},
		{
			"mesh":7,
			"name":"Geom3D_side.002"
		},
		{
			"children":[
				17
			],
			"name":"side_1.001",
			"translation":[
				-10,
				-4.724410057067871,
				10.000000953674316
			]
		},
		{
			"mesh":8,
			"name":"Geom3D_side.003",
			"translation":[
				0,
				-2.571614004409639e-06,
				0
			]
		},
		{
			"children":[
				19
			],
			"name":"side_1.002",
			"rotation":[
				0,
				-0.7071068286895752,
				0,
				0.7071067094802856
			],
			"translation":[
				-10,
				-36.72441482543945,
				-10.000000953674316
			]
		},
		{
			"mesh":9,
			"name":"Geom3D_side.004"
		},
		{
			"children":[
				21
			],
			"name":"side_1.003",
			"rotation":[
				0,
				-0.7071068286895752,
				0,
				0.7071067094802856
			],
			"translation":[
				-10,
				-4.724409580230713,
				-10
			]
		},
		{
			"mesh":10,
			"name":"Geom3D_side.005",
			"translation":[
				0,
				-2.571614004409639e-06,
				0
			]
		},
		{
			"children":[
				23
			],
			"name":"side_1.004",
			"rotation":[
				0,
				-0.7071068286895752,
				0,
				0.7071067094802856
			],
			"translation":[
				11.5,
				-36.72441482543945,
				-10.000000953674316
			]
		},
		{
			"mesh":11,
			"name":"Geom3D_side.006"
		},
		{
			"children":[
				25
			],
			"name":"side_1.005",
			"rotation":[
				0,
				0.7071068286895752,
				0,
				0.7071067094802856
			],
			"translation":[
				10,
				-4.724410057067871,
				10.000000953674316
			]
		},
		{
			"mesh":12,
			"name":"Geom3D_side.007"
		},
		{
			"children":[
				27
			],
			"name":"side_1.006",
			"rotation":[
				0,
				-0.7071068286895752,
				0,
				0.7071067094802856
			],
			"translation":[
				-10,
				-20.724409103393555,
				-10.000000953674316
			]
		},
		{
			"mesh":13,
			"name":"Geom3D_side.008"
		},
		{
			"children":[
				29
			],
			"name":"side_1.007",
			"rotation":[
				0,
				0.7071068286895752,
				0,
				0.7071067094802856
			],
			"translation":[
				10,
				-20.724409103393555,
				10
			]
		},
		{
			"mesh":14,
			"name":"Geom3D_side.009"
		},
		{
			"children":[
				31
			],
			"name":"side_1.008",
			"rotation":[
				0,
				1,
				0,
				1.9142846669762661e-16
			],
			"translation":[
				10,
				-4.724409580230713,
				-10
			]
		},
		{
			"name":"3DGeom-22_Defintion_3DGeom-22",
			"scale":[
				0.0027559055015444756,
				0.002755905268713832,
				0.002755905268713832
			]
		},
		{
			"children":[
				33
			],
			"name":"Body_1"
		},
		{
			"mesh":15,
			"name":"Geom3D.001",
			"translation":[
				0,
				0.0001220703125,
				0
			]
		},
		{
			"children":[
				35
			],
			"name":"3DGeom-200_Defintion_3DGeom-200",
			"scale":[
				0.005039252806454897,
				0.005039251875132322,
				0.005039251875132322
			]
		},
		{
			"children":[
				36
			],
			"name":"Body_2"
		},
		{
			"name":"3DGeom-206_Defintion_3DGeom-206",
			"scale":[
				0.002952755894511938,
				0.002952755894511938,
				0.002952755894511938
			]
		},
		{
			"children":[
				38
			],
			"name":"Body_3"
		},
		{
			"name":"3DGeom-212_Defintion_3DGeom-212",
			"scale":[
				0.0017716536531224847,
				0.0017716536531224847,
				0.0017716536531224847
			]
		},
		{
			"children":[
				40
			],
			"name":"Body_4"
		},
		{
			"name":"3DGeom-520_Defintion_3DGeom-520",
			"scale":[
				0.0027042266447097063,
				0.0027042266447097063,
				0.0027042266447097063
			]
		},
		{
			"name":"3DGeom-521_Defintion_3DGeom-521",
			"scale":[
				0.0030314652249217033,
				0.0030314652249217033,
				0.0030314652249217033
			]
		},
		{
			"name":"3DGeom-522_Defintion_3DGeom-522",
			"scale":[
				0.0007866087253205478,
				0.000786608608905226,
				0.000786608608905226
			]
		},
		{
			"name":"3DGeom-523_Defintion_3DGeom-523",
			"scale":[
				0.002165354322642088,
				0.002165354322642088,
				0.002165354322642088
			]
		},
		{
			"children":[
				42,
				43,
				44,
				45
			],
			"name":"Body_5"
		},
		{
			"name":"3DGeom-543_Defintion_3DGeom-543",
			"scale":[
				0.0010522955562919378,
				0.0010522955562919378,
				0.0010522955562919378
			]
		},
		{
			"children":[
				47
			],
			"name":"Body_6"
		},
		{
			"children":[
				34,
				37,
				39,
				41,
				46,
				48
			],
			"name":"SimLab_2023-04-13-15-43-14",
			"rotation":[
				0.70710688829422,
				0,
				0,
				0.7071066498756409
			],
			"translation":[
				10.750184059143066,
				0.47244101762771606,
				-10.750000953674316
			]
		},
		{
			"name":"3DGeom-22_Defintion_3DGeom-22.001",
			"scale":[
				0.0027559055015444756,
				0.002755905268713832,
				0.002755905268713832
			]
		},
		{
			"children":[
				50
			],
			"name":"Body_1.001"
		},
		{
			"mesh":16,
			"name":"Geom3D.010"
		},
		{
			"children":[
				52
			],
			"name":"3DGeom-200_Defintion_3DGeom-200.001",
			"scale":[
				0.005039252806454897,
				0.005039251875132322,
				0.005039251875132322
			]
		},
		{
			"children":[
				53
			],
			"name":"Body_2.001"
		},
		{
			"name":"3DGeom-206_Defintion_3DGeom-206.001",
			"scale":[
				0.002952755894511938,
				0.002952755894511938,
				0.002952755894511938
			]
		},
		{
			"children":[
				55
			],
			"name":"Body_3.001"
		},
		{
			"name":"3DGeom-212_Defintion_3DGeom-212.001",
			"scale":[
				0.0017716536531224847,
				0.0017716536531224847,
				0.0017716536531224847
			]
		},
		{
			"children":[
				57
			],
			"name":"Body_4.001"
		},
		{
			"name":"3DGeom-520_Defintion_3DGeom-520.001",
			"scale":[
				0.0027042266447097063,
				0.0027042266447097063,
				0.0027042266447097063
			]
		},
		{
			"name":"3DGeom-521_Defintion_3DGeom-521.001",
			"scale":[
				0.0030314652249217033,
				0.0030314652249217033,
				0.0030314652249217033
			]
		},
		{
			"name":"3DGeom-522_Defintion_3DGeom-522.001",
			"scale":[
				0.0007866087253205478,
				0.000786608608905226,
				0.000786608608905226
			]
		},
		{
			"name":"3DGeom-523_Defintion_3DGeom-523.001",
			"scale":[
				0.002165354322642088,
				0.002165354322642088,
				0.002165354322642088
			]
		},
		{
			"children":[
				59,
				60,
				61,
				62
			],
			"name":"Body_5.001"
		},
		{
			"name":"3DGeom-543_Defintion_3DGeom-543.001",
			"scale":[
				0.0010522955562919378,
				0.0010522955562919378,
				0.0010522955562919378
			]
		},
		{
			"children":[
				64
			],
			"name":"Body_6.001"
		},
		{
			"children":[
				51,
				54,
				56,
				58,
				63,
				65
			],
			"name":"SimLab_2023-04-13-15-43-14_1",
			"rotation":[
				0.70710688829422,
				0,
				0,
				0.7071066498756409
			],
			"translation":[
				10.750184059143066,
				0.4724409878253937,
				10.749815940856934
			]
		},
		{
			"name":"3DGeom-22_Defintion_3DGeom-22.002",
			"scale":[
				0.0027559055015444756,
				0.002755905268713832,
				0.002755905268713832
			]
		},
		{
			"children":[
				67
			],
			"name":"Body_1.002"
		},
		{
			"mesh":17,
			"name":"Geom3D.019",
			"translation":[
				0,
				0.0001220703125,
				0
			]
		},
		{
			"children":[
				69
			],
			"name":"3DGeom-200_Defintion_3DGeom-200.002",
			"scale":[
				0.005039252806454897,
				0.005039251875132322,
				0.005039251875132322
			]
		},
		{
			"children":[
				70
			],
			"name":"Body_2.002"
		},
		{
			"name":"3DGeom-206_Defintion_3DGeom-206.002",
			"scale":[
				0.002952755894511938,
				0.002952755894511938,
				0.002952755894511938
			]
		},
		{
			"children":[
				72
			],
			"name":"Body_3.002"
		},
		{
			"name":"3DGeom-212_Defintion_3DGeom-212.002",
			"scale":[
				0.0017716536531224847,
				0.0017716536531224847,
				0.0017716536531224847
			]
		},
		{
			"children":[
				74
			],
			"name":"Body_4.002"
		},
		{
			"name":"3DGeom-520_Defintion_3DGeom-520.002",
			"scale":[
				0.0027042266447097063,
				0.0027042266447097063,
				0.0027042266447097063
			]
		},
		{
			"name":"3DGeom-521_Defintion_3DGeom-521.002",
			"scale":[
				0.0030314652249217033,
				0.0030314652249217033,
				0.0030314652249217033
			]
		},
		{
			"name":"3DGeom-522_Defintion_3DGeom-522.002",
			"scale":[
				0.0007866087253205478,
				0.000786608608905226,
				0.000786608608905226
			]
		},
		{
			"name":"3DGeom-523_Defintion_3DGeom-523.002",
			"scale":[
				0.002165354322642088,
				0.002165354322642088,
				0.002165354322642088
			]
		},
		{
			"children":[
				76,
				77,
				78,
				79
			],
			"name":"Body_5.002"
		},
		{
			"name":"3DGeom-543_Defintion_3DGeom-543.002",
			"scale":[
				0.0010522955562919378,
				0.0010522955562919378,
				0.0010522955562919378
			]
		},
		{
			"children":[
				81
			],
			"name":"Body_6.002"
		},
		{
			"children":[
				68,
				71,
				73,
				75,
				80,
				82
			],
			"name":"SimLab_2023-04-13-15-43-14_1.001",
			"rotation":[
				0.70710688829422,
				0,
				0,
				0.7071066498756409
			],
			"translation":[
				-10.75,
				0.47244101762771606,
				-10.750000953674316
			]
		},
		{
			"name":"3DGeom-22_Defintion_3DGeom-22.003",
			"scale":[
				0.0027559055015444756,
				0.002755905268713832,
				0.002755905268713832
			]
		},
		{
			"children":[
				84
			],
			"name":"Body_1.003"
		},
		{
			"mesh":18,
			"name":"Geom3D.028"
		},
		{
			"children":[
				86
			],
			"name":"3DGeom-200_Defintion_3DGeom-200.003",
			"scale":[
				0.005039252806454897,
				0.005039251875132322,
				0.005039251875132322
			]
		},
		{
			"children":[
				87
			],
			"name":"Body_2.003"
		},
		{
			"name":"3DGeom-206_Defintion_3DGeom-206.003",
			"scale":[
				0.002952755894511938,
				0.002952755894511938,
				0.002952755894511938
			]
		},
		{
			"children":[
				89
			],
			"name":"Body_3.003"
		},
		{
			"name":"3DGeom-212_Defintion_3DGeom-212.003",
			"scale":[
				0.0017716536531224847,
				0.0017716536531224847,
				0.0017716536531224847
			]
		},
		{
			"children":[
				91
			],
			"name":"Body_4.003"
		},
		{
			"name":"3DGeom-520_Defintion_3DGeom-520.003",
			"scale":[
				0.0027042266447097063,
				0.0027042266447097063,
				0.0027042266447097063
			]
		},
		{
			"name":"3DGeom-521_Defintion_3DGeom-521.003",
			"scale":[
				0.0030314652249217033,
				0.0030314652249217033,
				0.0030314652249217033
			]
		},
		{
			"name":"3DGeom-522_Defintion_3DGeom-522.003",
			"scale":[
				0.0007866087253205478,
				0.000786608608905226,
				0.000786608608905226
			]
		},
		{
			"name":"3DGeom-523_Defintion_3DGeom-523.003",
			"scale":[
				0.002165354322642088,
				0.002165354322642088,
				0.002165354322642088
			]
		},
		{
			"children":[
				93,
				94,
				95,
				96
			],
			"name":"Body_5.003"
		},
		{
			"name":"3DGeom-543_Defintion_3DGeom-543.003",
			"scale":[
				0.0010522955562919378,
				0.0010522955562919378,
				0.0010522955562919378
			]
		},
		{
			"children":[
				98
			],
			"name":"Body_6.003"
		},
		{
			"children":[
				85,
				88,
				90,
				92,
				97,
				99
			],
			"name":"SimLab_2023-04-13-15-43-14_1.002",
			"rotation":[
				0.70710688829422,
				0,
				0,
				0.7071066498756409
			],
			"translation":[
				-10.75,
				0.4724409878253937,
				10.749815940856934
			]
		},
		{
			"children":[
				2,
				4,
				5,
				7,
				8,
				10,
				12,
				14,
				16,
				18,
				20,
				22,
				24,
				26,
				28,
				30,
				32,
				49,
				66,
				83,
				100
			],
			"name":"cart",
			"scale":[
				10.337799072265625,
				10.337800025939941,
				10.337800025939941
			],
			"translation":[
				7.7310967445373535,
				0,
				7.732999324798584
			]
		},
		{
			"children":[
				0,
				101
			],
			"name":"Assembly-83",
			"scale":[
				0.0010000000474974513,
				0.0010000000474974513,
				0.0010000000474974513
			]
		},
		{
			"children":[
				102
			],
			"name":"Node_0",
			"rotation":[
				-0.70710688829422,
				0,
				0,
				0.7071066498756409
			],
			"scale":[
				0.9843699932098389,
				0.9843701124191284,
				0.9843701124191284
			]
		}
	],
	"materials":[
		{
			"doubleSided":true,
			"name":"Material.002",
			"pbrMetallicRoughness":{
				"baseColorTexture":{
					"index":0
				},
				"metallicFactor":0,
				"roughnessFactor":0.5
			}
		},
		{
			"doubleSided":true,
			"extensions":{
				"KHR_materials_specular":{
					"specularColorFactor":[
						0.15882353484630585,
						0.12352941185235977,
						0.1039215698838234
					]
				},
				"KHR_materials_ior":{
					"ior":1000
				}
			},
			"name":"Mtl1",
			"pbrMetallicRoughness":{
				"baseColorFactor":[
					0.3176470696926117,
					0.24705882370471954,
					0.2078431397676468,
					1
				],
				"metallicFactor":0,
				"roughnessFactor":0.5
			}
		},
		{
			"doubleSided":true,
			"name":"Material.003",
			"pbrMetallicRoughness":{
				"baseColorTexture":{
					"index":1
				},
				"metallicFactor":0,
				"roughnessFactor":0.5
			}
		},
		{
			"doubleSided":true,
			"extensions":{
				"KHR_materials_specular":{
					"specularColorFactor":[
						0.3235294222831726,
						0.30980393290519714,
						0.29411765933036804
					]
				},
				"KHR_materials_ior":{
					"ior":1000
				}
			},
			"name":"Mtl5",
			"pbrMetallicRoughness":{
				"baseColorFactor":[
					0.6470588445663452,
					0.6196078658103943,
					0.5882353186607361,
					1
				],
				"metallicFactor":0,
				"roughnessFactor":0.5
			}
		},
		{
			"doubleSided":true,
			"extensions":{
				"KHR_materials_specular":{
					"specularColorFactor":[
						0.2764706015586853,
						0.2862745225429535,
						0.32549020648002625
					]
				},
				"KHR_materials_ior":{
					"ior":1000
				}
			},
			"name":"Mtl3",
			"pbrMetallicRoughness":{
				"baseColorFactor":[
					0.5529412031173706,
					0.572549045085907,
					0.6509804129600525,
					1
				],
				"metallicFactor":0,
				"roughnessFactor":0.5
			}
		},
		{
			"doubleSided":true,
			"extensions":{
				"KHR_materials_specular":{
					"specularColorFactor":[
						0.32549020648002625,
						0.30980393290519714,
						0.29411765933036804
					]
				},
				"KHR_materials_ior":{
					"ior":1000
				}
			},
			"name":"Mtl8",
			"pbrMetallicRoughness":{
				"baseColorFactor":[
					0.6509804129600525,
					0.6196078658103943,
					0.5882353186607361,
					1
				],
				"metallicFactor":0,
				"roughnessFactor":0.5
			}
		},
		{
			"doubleSided":true,
			"extensions":{
				"KHR_materials_specular":{
					"specularColorFactor":[
						0.3901960849761963,
						0.3803921639919281,
						0.3705882430076599
					]
				},
				"KHR_materials_ior":{
					"ior":1000
				}
			},
			"name":"Mtl9",
			"pbrMetallicRoughness":{
				"baseColorFactor":[
					0.7803921699523926,
					0.7607843279838562,
					0.7411764860153198,
					1
				],
				"metallicFactor":0,
				"roughnessFactor":0.5
			}
		}
	],
	"meshes":[
		{
			"name":"Mesh_12",
			"primitives":[
				{
					"attributes":{
						"POSITION":0,
						"NORMAL":1,
						"TEXCOORD_0":2
					},
					"indices":3,
					"material":0
				}
			]
		},
		{
			"name":"Mesh_13",
			"primitives":[
				{
					"attributes":{
						"POSITION":4,
						"NORMAL":5,
						"TEXCOORD_0":6
					},
					"indices":3,
					"material":0
				}
			]
		},
		{
			"name":"Mesh_49",
			"primitives":[
				{
					"attributes":{
						"POSITION":7,
						"NORMAL":8,
						"TEXCOORD_0":9
					},
					"indices":3,
					"material":0
				}
			]
		},
		{
			"name":"Mesh_51",
			"primitives":[
				{
					"attributes":{
						"POSITION":10,
						"NORMAL":11,
						"TEXCOORD_0":12
					},
					"indices":13,
					"material":0
				}
			]
		},
		{
			"name":"Mesh_52",
			"primitives":[
				{
					"attributes":{
						"POSITION":14,
						"NORMAL":15,
						"TEXCOORD_0":16
					},
					"indices":13,
					"material":0
				}
			]
		},
		{
			"name":"Mesh_0",
			"primitives":[
				{
					"attributes":{
						"POSITION":17,
						"NORMAL":18,
						"TEXCOORD_0":19
					},
					"indices":20,
					"material":0
				}
			]
		},
		{
			"name":"Mesh_10",
			"primitives":[
				{
					"attributes":{
						"POSITION":21,
						"NORMAL":22,
						"TEXCOORD_0":23
					},
					"indices":24,
					"material":0
				},
				{
					"attributes":{
						"POSITION":25,
						"NORMAL":26,
						"TEXCOORD_0":27
					},
					"indices":28,
					"material":1
				},
				{
					"attributes":{
						"POSITION":29,
						"NORMAL":30,
						"TEXCOORD_0":31
					},
					"indices":32,
					"material":2
				},
				{
					"attributes":{
						"POSITION":33,
						"NORMAL":34,
						"TEXCOORD_0":35
					},
					"indices":36,
					"material":3
				},
				{
					"attributes":{
						"POSITION":37,
						"NORMAL":38,
						"TEXCOORD_0":39
					},
					"indices":40,
					"material":4
				},
				{
					"attributes":{
						"POSITION":41,
						"NORMAL":42,
						"TEXCOORD_0":43
					},
					"indices":44,
					"material":5
				},
				{
					"attributes":{
						"POSITION":45,
						"NORMAL":46,
						"TEXCOORD_0":47
					},
					"indices":48,
					"material":6
				}
			]
		},
		{
			"name":"Mesh_11",
			"primitives":[
				{
					"attributes":{
						"POSITION":49,
						"NORMAL":50,
						"TEXCOORD_0":51
					},
					"indices":20,
					"material":0
				}
			]
		},
		{
			"name":"Mesh_14",
			"primitives":[
				{
					"attributes":{
						"POSITION":52,
						"NORMAL":53,
						"TEXCOORD_0":54
					},
					"indices":20,
					"material":0
				}
			]
		},
		{
			"name":"Mesh_15",
			"primitives":[
				{
					"attributes":{
						"POSITION":55,
						"NORMAL":56,
						"TEXCOORD_0":57
					},
					"indices":20,
					"material":0
				}
			]
		},
		{
			"name":"Mesh_16",
			"primitives":[
				{
					"attributes":{
						"POSITION":58,
						"NORMAL":59,
						"TEXCOORD_0":60
					},
					"indices":20,
					"material":0
				}
			]
		},
		{
			"name":"Mesh_17",
			"primitives":[
				{
					"attributes":{
						"POSITION":61,
						"NORMAL":62,
						"TEXCOORD_0":63
					},
					"indices":20,
					"material":0
				}
			]
		},
		{
			"name":"Mesh_18",
			"primitives":[
				{
					"attributes":{
						"POSITION":64,
						"NORMAL":65,
						"TEXCOORD_0":66
					},
					"indices":20,
					"material":0
				}
			]
		},
		{
			"name":"Mesh_19",
			"primitives":[
				{
					"attributes":{
						"POSITION":67,
						"NORMAL":68,
						"TEXCOORD_0":69
					},
					"indices":20,
					"material":0
				}
			]
		},
		{
			"name":"Mesh_48",
			"primitives":[
				{
					"attributes":{
						"POSITION":70,
						"NORMAL":71,
						"TEXCOORD_0":72
					},
					"indices":20,
					"material":0
				}
			]
		},
		{
			"name":"Mesh_2",
			"primitives":[
				{
					"attributes":{
						"POSITION":73,
						"NORMAL":74,
						"TEXCOORD_0":75
					},
					"indices":76,
					"material":0
				}
			]
		},
		{
			"name":"Mesh_21",
			"primitives":[
				{
					"attributes":{
						"POSITION":77,
						"NORMAL":78,
						"TEXCOORD_0":79
					},
					"indices":76,
					"material":0
				}
			]
		},
		{
			"name":"Mesh_30",
			"primitives":[
				{
					"attributes":{
						"POSITION":80,
						"NORMAL":81,
						"TEXCOORD_0":82
					},
					"indices":76,
					"material":0
				}
			]
		},
		{
			"name":"Mesh_40",
			"primitives":[
				{
					"attributes":{
						"POSITION":83,
						"NORMAL":84,
						"TEXCOORD_0":85
					},
					"indices":76,
					"material":0
				}
			]
		}
	],
	"textures":[
		{
			"sampler":0,
			"source":0
		},
		{
			"sampler":0,
			"source":1
		}
	],
	"images":[
		{
			"mimeType":"image/png",
			"name":"Metal009_1K-PNG_Color",
			"uri":"textures/Metal009_1K-PNG_Color.png"
		},
		{
			"mimeType":"image/png",
			"name":"Rubber004_1K-PNG_Color",
			"uri":"textures/Rubber004_1K-PNG_Color.png"
		}
	],
	"accessors":[
		{
			"bufferView":0,
			"componentType":5126,
			"count":268,
			"max":[
				1.5,
				0,
				1.5
			],
			"min":[
				0,
				-32,
				0
			],
			"type":"VEC3"
		},
		{
			"bufferView":1,
			"componentType":5126,
			"count":268,
			"type":"VEC3"
		},
		{
			"bufferView":2,
			"componentType":5126,
			"count":268,
			"type":"VEC2"
		},
		{
			"bufferView":3,
			"componentType":5123,
			"count":528,
			"type":"SCALAR"
		},
		{
			"bufferView":4,
			"componentType":5126,
			"count":268,
			"max":[
				1.5,
				0,
				1.5
			],
			"min":[
				0,
				-32,
				0
			],
			"type":"VEC3"
		},
		{
			"bufferView":5,
			"componentType":5126,
			"count":268,
			"type":"VEC3"
		},
		{
			"bufferView":6,
			"componentType":5126,
			"count":268,
			"type":"VEC2"
		},
		{
			"bufferView":7,
			"componentType":5126,
			"count":268,
			"max":[
				1.5,
				0,
				1.5
			],
			"min":[
				0,
				-32,
				0
			],
			"type":"VEC3"
		},
		{
			"bufferView":8,
			"componentType":5126,
			"count":268,
			"type":"VEC3"
		},
		{
			"bufferView":9,
			"componentType":5126,
			"count":268,
			"type":"VEC2"
		},
		{
			"bufferView":10,
			"componentType":5126,
			"count":268,
			"max":[
				1.5,
				7.815970093361102e-14,
				23
			],
			"min":[
				-3.3217872896784684e-12,
				-1.5,
				0
			],
			"type":"VEC3"
		},
		{
			"bufferView":11,
			"componentType":5126,
			"count":268,
			"type":"VEC3"
		},
		{
			"bufferView":12,
			"componentType":5126,
			"count":268,
			"type":"VEC2"
		},
		{
			"bufferView":13,
			"componentType":5123,
			"count":528,
			"type":"SCALAR"
		},
		{
			"bufferView":14,
			"componentType":5126,
			"count":268,
			"max":[
				1.5,
				7.815970093361102e-14,
				23
			],
			"min":[
				-3.3217872896784684e-12,
				-1.5,
				0
			],
			"type":"VEC3"
		},
		{
			"bufferView":15,
			"componentType":5126,
			"count":268,
			"type":"VEC3"
		},
		{
			"bufferView":16,
			"componentType":5126,
			"count":268,
			"type":"VEC2"
		},
		{
			"bufferView":17,
			"componentType":5126,
			"count":268,
			"max":[
				20,
				0,
				1.5
			],
			"min":[
				0,
				-1.5,
				0
			],
			"type":"VEC3"
		},
		{
			"bufferView":18,
			"componentType":5126,
			"count":268,
			"type":"VEC3"
		},
		{
			"bufferView":19,
			"componentType":5126,
			"count":268,
			"type":"VEC2"
		},
		{
			"bufferView":20,
			"componentType":5123,
			"count":528,
			"type":"SCALAR"
		},
		{
			"bufferView":21,
			"componentType":5126,
			"count":435391,
			"max":[
				23.72232437133789,
				20.724407196044922,
				2.8162903785705566
			],
			"min":[
				-2.8171122074127197,
				-18.440006256103516,
				-22.81610679626465
			],
			"type":"VEC3"
		},
		{
			"bufferView":22,
			"componentType":5126,
			"count":435391,
			"type":"VEC3"
		},
		{
			"bufferView":23,
			"componentType":5126,
			"count":435391,
			"type":"VEC2"
		},
		{
			"bufferView":24,
			"componentType":5125,
			"count":439488,
			"type":"SCALAR"
		},
		{
			"bufferView":25,
			"componentType":5126,
			"count":9624,
			"max":[
				22.127952575683594,
				16.236217498779297,
				1.943342924118042
			],
			"min":[
				-2.1281356811523438,
				15.99999713897705,
				-21.943159103393555
			],
			"type":"VEC3"
		},
		{
			"bufferView":26,
			"componentType":5126,
			"count":9624,
			"type":"VEC3"
		},
		{
			"bufferView":27,
			"componentType":5126,
			"count":9624,
			"type":"VEC2"
		},
		{
			"bufferView":28,
			"componentType":5123,
			"count":9624,
			"type":"SCALAR"
		},
		{
			"bufferView":29,
			"componentType":5126,
			"count":44256,
			"max":[
				24.312992095947266,
				20.723758697509766,
				1.340551733970642
			],
			"min":[
				-0.13994687795639038,
				17.77229881286621,
				-21.340368270874023
			],
			"type":"VEC3"
		},
		{
			"bufferView":30,
			"componentType":5126,
			"count":44256,
			"type":"VEC3"
		},
		{
			"bufferView":31,
			"componentType":5126,
			"count":44256,
			"type":"VEC2"
		},
		{
			"bufferView":32,
			"componentType":5123,
			"count":44256,
			"type":"SCALAR"
		},
		{
			"bufferView":33,
			"componentType":5126,
			"count":5952,
			"max":[
				21.064556121826172,
				16.590547561645508,
				1.064961552619934
			],
			"min":[
				-1.064739465713501,
				14.818894386291504,
				-21.064777374267578
			],
			"type":"VEC3"
		},
		{
			"bufferView":34,
			"componentType":5126,
			"count":5952,
			"type":"VEC3"
		},
		{
			"bufferView":35,
			"componentType":5126,
			"count":5952,
			"type":"VEC2"
		},
		{
			"bufferView":36,
			"componentType":5123,
			"count":5952,
			"type":"SCALAR"
		},
		{
			"bufferView":37,
			"componentType":5126,
			"count":420,
			"max":[
				21.1433048248291,
				16.47243881225586,
				1.1421165466308594
			],
			"min":[
				-1.1434874534606934,
				16.47243881225586,
				-21.143516540527344
			],
			"type":"VEC3"
		},
		{
			"bufferView":38,
			"componentType":5126,
			"count":420,
			"type":"VEC3"
		},
		{
			"bufferView":39,
			"componentType":5126,
			"count":420,
			"type":"VEC2"
		},
		{
			"bufferView":40,
			"componentType":5123,
			"count":420,
			"type":"SCALAR"
		},
		{
			"bufferView":41,
			"componentType":5126,
			"count":1596,
			"max":[
				21.1433048248291,
				18.637792587280273,
				1.1437013149261475
			],
			"min":[
				-1.1434874534606934,
				16.472436904907227,
				-21.143516540527344
			],
			"type":"VEC3"
		},
		{
			"bufferView":42,
			"componentType":5126,
			"count":1596,
			"type":"VEC3"
		},
		{
			"bufferView":43,
			"componentType":5126,
			"count":1596,
			"type":"VEC2"
		},
		{
			"bufferView":44,
			"componentType":5123,
			"count":1596,
			"type":"SCALAR"
		},
		{
			"bufferView":45,
			"componentType":5126,
			"count":16896,
			"max":[
				21.276147842407227,
				15.999996185302734,
				1.220473289489746
			],
			"min":[
				-1.2763309478759766,
				15.55511474609375,
				-21.22028923034668
			],
			"type":"VEC3"
		},
		{
			"bufferView":46,
			"componentType":5126,
			"count":16896,
			"type":"VEC3"
		},
		{
			"bufferView":47,
			"componentType":5126,
			"count":16896,
			"type":"VEC2"
		},
		{
			"bufferView":48,
			"componentType":5123,
			"count":16896,
			"type":"SCALAR"
		},
		{
			"bufferView":49,
			"componentType":5126,
			"count":268,
			"max":[
				20,
				0,
				1.5
			],
			"min":[
				0,
				-1.5,
				0
			],
			"type":"VEC3"
		},
		{
			"bufferView":50,
			"componentType":5126,
			"count":268,
			"type":"VEC3"
		},
		{
			"bufferView":51,
			"componentType":5126,
			"count":268,
			"type":"VEC2"
		},
		{
			"bufferView":52,
			"componentType":5126,
			"count":268,
			"max":[
				20,
				0,
				1.5
			],
			"min":[
				0,
				-1.5,
				0
			],
			"type":"VEC3"
		},
		{
			"bufferView":53,
			"componentType":5126,
			"count":268,
			"type":"VEC3"
		},
		{
			"bufferView":54,
			"componentType":5126,
			"count":268,
			"type":"VEC2"
		},
		{
			"bufferView":55,
			"componentType":5126,
			"count":268,
			"max":[
				20,
				0,
				1.5
			],
			"min":[
				0,
				-1.5,
				0
			],
			"type":"VEC3"
		},
		{
			"bufferView":56,
			"componentType":5126,
			"count":268,
			"type":"VEC3"
		},
		{
			"bufferView":57,
			"componentType":5126,
			"count":268,
			"type":"VEC2"
		},
		{
			"bufferView":58,
			"componentType":5126,
			"count":268,
			"max":[
				20,
				0,
				1.5
			],
			"min":[
				0,
				-1.5,
				0
			],
			"type":"VEC3"
		},
		{
			"bufferView":59,
			"componentType":5126,
			"count":268,
			"type":"VEC3"
		},
		{
			"bufferView":60,
			"componentType":5126,
			"count":268,
			"type":"VEC2"
		},
		{
			"bufferView":61,
			"componentType":5126,
			"count":268,
			"max":[
				20,
				0,
				1.5
			],
			"min":[
				0,
				-1.5,
				0
			],
			"type":"VEC3"
		},
		{
			"bufferView":62,
			"componentType":5126,
			"count":268,
			"type":"VEC3"
		},
		{
			"bufferView":63,
			"componentType":5126,
			"count":268,
			"type":"VEC2"
		},
		{
			"bufferView":64,
			"componentType":5126,
			"count":268,
			"max":[
				20,
				0,
				1.5
			],
			"min":[
				0,
				-1.5,
				0
			],
			"type":"VEC3"
		},
		{
			"bufferView":65,
			"componentType":5126,
			"count":268,
			"type":"VEC3"
		},
		{
			"bufferView":66,
			"componentType":5126,
			"count":268,
			"type":"VEC2"
		},
		{
			"bufferView":67,
			"componentType":5126,
			"count":268,
			"max":[
				20,
				0,
				1.5
			],
			"min":[
				0,
				-1.5,
				0
			],
			"type":"VEC3"
		},
		{
			"bufferView":68,
			"componentType":5126,
			"count":268,
			"type":"VEC3"
		},
		{
			"bufferView":69,
			"componentType":5126,
			"count":268,
			"type":"VEC2"
		},
		{
			"bufferView":70,
			"componentType":5126,
			"count":268,
			"max":[
				20,
				0,
				1.5
			],
			"min":[
				0,
				-1.5,
				0
			],
			"type":"VEC3"
		},
		{
			"bufferView":71,
			"componentType":5126,
			"count":268,
			"type":"VEC3"
		},
		{
			"bufferView":72,
			"componentType":5126,
			"count":268,
			"type":"VEC2"
		},
		{
			"bufferView":73,
			"componentType":5126,
			"count":60594,
			"max":[
				410.1658020019531,
				410.03900146484375,
				968.7725830078125
			],
			"min":[
				-589.8341674804688,
				-410.03900146484375,
				250.01882934570312
			],
			"type":"VEC3"
		},
		{
			"bufferView":74,
			"componentType":5126,
			"count":60594,
			"type":"VEC3"
		},
		{
			"bufferView":75,
			"componentType":5126,
			"count":60594,
			"type":"VEC2"
		},
		{
			"bufferView":76,
			"componentType":5123,
			"count":60594,
			"type":"SCALAR"
		},
		{
			"bufferView":77,
			"componentType":5126,
			"count":60594,
			"max":[
				410.1658020019531,
				410.03900146484375,
				968.7725830078125
			],
			"min":[
				-589.8341674804688,
				-410.03900146484375,
				250.01882934570312
			],
			"type":"VEC3"
		},
		{
			"bufferView":78,
			"componentType":5126,
			"count":60594,
			"type":"VEC3"
		},
		{
			"bufferView":79,
			"componentType":5126,
			"count":60594,
			"type":"VEC2"
		},
		{
			"bufferView":80,
			"componentType":5126,
			"count":60594,
			"max":[
				410.1658020019531,
				410.03900146484375,
				968.7725830078125
			],
			"min":[
				-589.8341674804688,
				-410.03900146484375,
				250.01882934570312
			],
			"type":"VEC3"
		},
		{
			"bufferView":81,
			"componentType":5126,
			"count":60594,
			"type":"VEC3"
		},
		{
			"bufferView":82,
			"componentType":5126,
			"count":60594,
			"type":"VEC2"
		},
		{
			"bufferView":83,
			"componentType":5126,
			"count":60594,
			"max":[
				410.1658020019531,
				410.03900146484375,
				968.7725830078125
			],
			"min":[
				-589.8341674804688,
				-410.03900146484375,
				250.01882934570312
			],
			"type":"VEC3"
		},
		{
			"bufferView":84,
			"componentType":5126,
			"count":60594,
			"type":"VEC3"
		},
		{
			"bufferView":85,
			"componentType":5126,
			"count":60594,
			"type":"VEC2"
		}
	],
	"bufferViews":[
		{
			"buffer":0,
			"byteLength":3216,
			"byteOffset":0,
			"target":34962
		},
		{
			"buffer":0,
			"byteLength":3216,
			"byteOffset":3216,
			"target":34962
		},
		{
			"buffer":0,
			"byteLength":2144,
			"byteOffset":6432,
			"target":34962
		},
		{
			"buffer":0,
			"byteLength":1056,
			"byteOffset":8576,
			"target":34963
		},
		{
			"buffer":0,
			"byteLength":3216,
			"byteOffset":9632,
			"target":34962
		},
		{
			"buffer":0,
			"byteLength":3216,
			"byteOffset":12848,
			"target":34962
		},
		{
			"buffer":0,
			"byteLength":2144,
			"byteOffset":16064,
			"target":34962
		},
		{
			"buffer":0,
			"byteLength":3216,
			"byteOffset":18208,
			"target":34962
		},
		{
			"buffer":0,
			"byteLength":3216,
			"byteOffset":21424,
			"target":34962
		},
		{
			"buffer":0,
			"byteLength":2144,
			"byteOffset":24640,
			"target":34962
		},
		{
			"buffer":0,
			"byteLength":3216,
			"byteOffset":26784,
			"target":34962
		},
		{
			"buffer":0,
			"byteLength":3216,
			"byteOffset":30000,
			"target":34962
		},
		{
			"buffer":0,
			"byteLength":2144,
			"byteOffset":33216,
			"target":34962
		},
		{
			"buffer":0,
			"byteLength":1056,
			"byteOffset":35360,
			"target":34963
		},
		{
			"buffer":0,
			"byteLength":3216,
			"byteOffset":36416,
			"target":34962
		},
		{
			"buffer":0,
			"byteLength":3216,
			"byteOffset":39632,
			"target":34962
		},
		{
			"buffer":0,
			"byteLength":2144,
			"byteOffset":42848,
			"target":34962
		},
		{
			"buffer":0,
			"byteLength":3216,
			"byteOffset":44992,
			"target":34962
		},
		{
			"buffer":0,
			"byteLength":3216,
			"byteOffset":48208,
			"target":34962
		},
		{
			"buffer":0,
			"byteLength":2144,
			"byteOffset":51424,
			"target":34962
		},
		{
			"buffer":0,
			"byteLength":1056,
			"byteOffset":53568,
			"target":34963
		},
		{
			"buffer":0,
			"byteLength":5224692,
			"byteOffset":54624,
			"target":34962
		},
		{
			"buffer":0,
			"byteLength":5224692,
			"byteOffset":5279316,
			"target":34962
		},
		{
			"buffer":0,
			"byteLength":3483128,
			"byteOffset":10504008,
			"target":34962
		},
		{
			"buffer":0,
			"byteLength":1757952,
			"byteOffset":13987136,
			"target":34963
		},
		{
			"buffer":0,
			"byteLength":115488,
			"byteOffset":15745088,
			"target":34962
		},
		{
			"buffer":0,
			"byteLength":115488,
			"byteOffset":15860576,
			"target":34962
		},
		{
			"buffer":0,
			"byteLength":76992,
			"byteOffset":15976064,
			"target":34962
		},
		{
			"buffer":0,
			"byteLength":19248,
			"byteOffset":16053056,
			"target":34963
		},
		{
			"buffer":0,
			"byteLength":531072,
			"byteOffset":16072304,
			"target":34962
		},
		{
			"buffer":0,
			"byteLength":531072,
			"byteOffset":16603376,
			"target":34962
		},
		{
			"buffer":0,
			"byteLength":354048,
			"byteOffset":17134448,
			"target":34962
		},
		{
			"buffer":0,
			"byteLength":88512,
			"byteOffset":17488496,
			"target":34963
		},
		{
			"buffer":0,
			"byteLength":71424,
			"byteOffset":17577008,
			"target":34962
		},
		{
			"buffer":0,
			"byteLength":71424,
			"byteOffset":17648432,
			"target":34962
		},
		{
			"buffer":0,
			"byteLength":47616,
			"byteOffset":17719856,
			"target":34962
		},
		{
			"buffer":0,
			"byteLength":11904,
			"byteOffset":17767472,
			"target":34963
		},
		{
			"buffer":0,
			"byteLength":5040,
			"byteOffset":17779376,
			"target":34962
		},
		{
			"buffer":0,
			"byteLength":5040,
			"byteOffset":17784416,
			"target":34962
		},
		{
			"buffer":0,
			"byteLength":3360,
			"byteOffset":17789456,
			"target":34962
		},
		{
			"buffer":0,
			"byteLength":840,
			"byteOffset":17792816,
			"target":34963
		},
		{
			"buffer":0,
			"byteLength":19152,
			"byteOffset":17793656,
			"target":34962
		},
		{
			"buffer":0,
			"byteLength":19152,
			"byteOffset":17812808,
			"target":34962
		},
		{
			"buffer":0,
			"byteLength":12768,
			"byteOffset":17831960,
			"target":34962
		},
		{
			"buffer":0,
			"byteLength":3192,
			"byteOffset":17844728,
			"target":34963
		},
		{
			"buffer":0,
			"byteLength":202752,
			"byteOffset":17847920,
			"target":34962
		},
		{
			"buffer":0,
			"byteLength":202752,
			"byteOffset":18050672,
			"target":34962
		},
		{
			"buffer":0,
			"byteLength":135168,
			"byteOffset":18253424,
			"target":34962
		},
		{
			"buffer":0,
			"byteLength":33792,
			"byteOffset":18388592,
			"target":34963
		},
		{
			"buffer":0,
			"byteLength":3216,
			"byteOffset":18422384,
			"target":34962
		},
		{
			"buffer":0,
			"byteLength":3216,
			"byteOffset":18425600,
			"target":34962
		},
		{
			"buffer":0,
			"byteLength":2144,
			"byteOffset":18428816,
			"target":34962
		},
		{
			"buffer":0,
			"byteLength":3216,
			"byteOffset":18430960,
			"target":34962
		},
		{
			"buffer":0,
			"byteLength":3216,
			"byteOffset":18434176,
			"target":34962
		},
		{
			"buffer":0,
			"byteLength":2144,
			"byteOffset":18437392,
			"target":34962
		},
		{
			"buffer":0,
			"byteLength":3216,
			"byteOffset":18439536,
			"target":34962
		},
		{
			"buffer":0,
			"byteLength":3216,
			"byteOffset":18442752,
			"target":34962
		},
		{
			"buffer":0,
			"byteLength":2144,
			"byteOffset":18445968,
			"target":34962
		},
		{
			"buffer":0,
			"byteLength":3216,
			"byteOffset":18448112,
			"target":34962
		},
		{
			"buffer":0,
			"byteLength":3216,
			"byteOffset":18451328,
			"target":34962
		},
		{
			"buffer":0,
			"byteLength":2144,
			"byteOffset":18454544,
			"target":34962
		},
		{
			"buffer":0,
			"byteLength":3216,
			"byteOffset":18456688,
			"target":34962
		},
		{
			"buffer":0,
			"byteLength":3216,
			"byteOffset":18459904,
			"target":34962
		},
		{
			"buffer":0,
			"byteLength":2144,
			"byteOffset":18463120,
			"target":34962
		},
		{
			"buffer":0,
			"byteLength":3216,
			"byteOffset":18465264,
			"target":34962
		},
		{
			"buffer":0,
			"byteLength":3216,
			"byteOffset":18468480,
			"target":34962
		},
		{
			"buffer":0,
			"byteLength":2144,
			"byteOffset":18471696,
			"target":34962
		},
		{
			"buffer":0,
			"byteLength":3216,
			"byteOffset":18473840,
			"target":34962
		},
		{
			"buffer":0,
			"byteLength":3216,
			"byteOffset":18477056,
			"target":34962
		},
		{
			"buffer":0,
			"byteLength":2144,
			"byteOffset":18480272,
			"target":34962
		},
		{
			"buffer":0,
			"byteLength":3216,
			"byteOffset":18482416,
			"target":34962
		},
		{
			"buffer":0,
			"byteLength":3216,
			"byteOffset":18485632,
			"target":34962
		},
		{
			"buffer":0,
			"byteLength":2144,
			"byteOffset":18488848,
			"target":34962
		},
		{
			"buffer":0,
			"byteLength":727128,
			"byteOffset":18490992,
			"target":34962
		},
		{
			"buffer":0,
			"byteLength":727128,
			"byteOffset":19218120,
			"target":34962
		},
		{
			"buffer":0,
			"byteLength":484752,
			"byteOffset":19945248,
			"target":34962
		},
		{
			"buffer":0,
			"byteLength":121188,
			"byteOffset":20430000,
			"target":34963
		},
		{
			"buffer":0,
			"byteLength":727128,
			"byteOffset":20551188,
			"target":34962
		},
		{
			"buffer":0,
			"byteLength":727128,
			"byteOffset":21278316,
			"target":34962
		},
		{
			"buffer":0,
			"byteLength":484752,
			"byteOffset":22005444,
			"target":34962
		},
		{
			"buffer":0,
			"byteLength":727128,
			"byteOffset":22490196,
			"target":34962
		},
		{
			"buffer":0,
			"byteLength":727128,
			"byteOffset":23217324,
			"target":34962
		},
		{
			"buffer":0,
			"byteLength":484752,
			"byteOffset":23944452,
			"target":34962
		},
		{
			"buffer":0,
			"byteLength":727128,
			"byteOffset":24429204,
			"target":34962
		},
		{
			"buffer":0,
			"byteLength":727128,
			"byteOffset":25156332,
			"target":34962
		},
		{
			"buffer":0,
			"byteLength":484752,
			"byteOffset":25883460,
			"target":34962
		}
	],
	"samplers":[
		{
			"magFilter":9729,
			"minFilter":9987
		}
	],
	"buffers":[
		{
			"byteLength":26368212,
			"uri":"robot_stand.bin"
		}
	]
}
