{
	"asset":{
		"generator":"Khronos glTF Blender I/O v4.0.44",
		"version":"2.0"
	},
	"scene":0,
	"scenes":[
		{
			"name":"Scene",
			"nodes":[
				0
			]
		}
	],
	"nodes":[
		{
			"mesh":0,
			"name":"vg_2.SLDPRT",
			"rotation":[
				-1,
				0,
				0,
				4.371138828673793e-08
			]
		}
	],
	"materials":[
		{
			"name":"yellow",
			"pbrMetallicRoughness":{
				"baseColorFactor":[
					0.558620035648346,
					0.41402482986450195,
					0.039758071303367615,
					1
				],
				"metallicFactor":0.5,
				"roughnessFactor":0.25
			}
		},
		{
			"name":"whitesolid",
			"pbrMetallicRoughness":{
				"baseColorFactor":[
					0.10048149526119232,
					0.10048149526119232,
					0.10048149526119232,
					1
				],
				"metallicFactor":0.5,
				"roughnessFactor":0.25
			}
		},
		{
			"name":"Steel",
			"pbrMetallicRoughness":{
				"baseColorFactor":[
					0.6450576782226562,
					0.6450576782226562,
					0.6450576782226562,
					1
				],
				"metallicFactor":0.5,
				"roughnessFactor":0.25
			}
		},
		{
			"name":"green",
			"pbrMetallicRoughness":{
				"baseColorFactor":[
					0.5542217493057251,
					0.19705386459827423,
					0,
					1
				],
				"metallicFactor":0.5,
				"roughnessFactor":0.3333333134651184
			}
		},
		{
			"name":"orange",
			"pbrMetallicRoughness":{
				"baseColorTexture":{
					"index":0
				},
				"metallicFactor":0
			}
		},
		{
			"name":"pink",
			"pbrMetallicRoughness":{
				"baseColorFactor":[
					0,
					0,
					0,
					1
				],
				"metallicFactor":0.5,
				"roughnessFactor":0.25
			}
		}
	],
	"meshes":[
		{
			"name":"Mesh_0",
			"primitives":[
				{
					"attributes":{
						"POSITION":0,
						"NORMAL":1,
						"TEXCOORD_0":2
					},
					"indices":3,
					"material":0
				},
				{
					"attributes":{
						"POSITION":4,
						"NORMAL":5,
						"TEXCOORD_0":6
					},
					"indices":7,
					"material":1
				},
				{
					"attributes":{
						"POSITION":8,
						"NORMAL":9,
						"TEXCOORD_0":10
					},
					"indices":11,
					"material":2
				},
				{
					"attributes":{
						"POSITION":12,
						"NORMAL":13,
						"TEXCOORD_0":14
					},
					"indices":15,
					"material":3
				},
				{
					"attributes":{
						"POSITION":16,
						"NORMAL":17,
						"TEXCOORD_0":18
					},
					"indices":19,
					"material":4
				},
				{
					"attributes":{
						"POSITION":20,
						"NORMAL":21,
						"TEXCOORD_0":22
					},
					"indices":23,
					"material":5
				}
			]
		}
	],
	"textures":[
		{
			"sampler":0,
			"source":0
		}
	],
	"images":[
		{
			"mimeType":"image/png",
			"name":"Plastic011_1K-PNG_Color",
			"uri":"textures/Plastic011_1K-PNG_Color.png"
		}
	],
	"accessors":[
		{
			"bufferView":0,
			"componentType":5126,
			"count":7038,
			"max":[
				0.012500000186264515,
				0.012500000186264515,
				-0.05000000074505806
			],
			"min":[
				-0.012500000186264515,
				-0.012500000186264515,
				-0.061500001698732376
			],
			"type":"VEC3"
		},
		{
			"bufferView":1,
			"componentType":5126,
			"count":7038,
			"type":"VEC3"
		},
		{
			"bufferView":2,
			"componentType":5126,
			"count":7038,
			"type":"VEC2"
		},
		{
			"bufferView":3,
			"componentType":5123,
			"count":7038,
			"type":"SCALAR"
		},
		{
			"bufferView":4,
			"componentType":5126,
			"count":27972,
			"max":[
				0.007997751235961914,
				0.03299950435757637,
				0.007000000216066837
			],
			"min":[
				-0.007997751235961914,
				-0.032992489635944366,
				0.003000000026077032
			],
			"type":"VEC3"
		},
		{
			"bufferView":5,
			"componentType":5126,
			"count":27972,
			"type":"VEC3"
		},
		{
			"bufferView":6,
			"componentType":5126,
			"count":27972,
			"type":"VEC2"
		},
		{
			"bufferView":7,
			"componentType":5123,
			"count":27972,
			"type":"SCALAR"
		},
		{
			"bufferView":8,
			"componentType":5126,
			"count":420,
			"max":[
				0.007499999832361937,
				0.007499999832361937,
				2.7755575615628914e-17
			],
			"min":[
				-0.007499999832361937,
				-0.007499999832361937,
				-0.05000000074505806
			],
			"type":"VEC3"
		},
		{
			"bufferView":9,
			"componentType":5126,
			"count":420,
			"type":"VEC3"
		},
		{
			"bufferView":10,
			"componentType":5126,
			"count":420,
			"type":"VEC2"
		},
		{
			"bufferView":11,
			"componentType":5123,
			"count":420,
			"type":"SCALAR"
		},
		{
			"bufferView":12,
			"componentType":5126,
			"count":4332,
			"max":[
				0.009437603875994682,
				0.02942606247961521,
				-0.05299999937415123
			],
			"min":[
				-0.009437603875994682,
				-0.02942606247961521,
				-0.05700000002980232
			],
			"type":"VEC3"
		},
		{
			"bufferView":13,
			"componentType":5126,
			"count":4332,
			"type":"VEC3"
		},
		{
			"bufferView":14,
			"componentType":5126,
			"count":4332,
			"type":"VEC2"
		},
		{
			"bufferView":15,
			"componentType":5123,
			"count":4332,
			"type":"SCALAR"
		},
		{
			"bufferView":16,
			"componentType":5126,
			"count":540,
			"max":[
				0.009999999776482582,
				0.03500000014901161,
				0.003000000026077032
			],
			"min":[
				-0.009999999776482582,
				-0.03500000014901161,
				0
			],
			"type":"VEC3"
		},
		{
			"bufferView":17,
			"componentType":5126,
			"count":540,
			"type":"VEC3"
		},
		{
			"bufferView":18,
			"componentType":5126,
			"count":540,
			"type":"VEC2"
		},
		{
			"bufferView":19,
			"componentType":5123,
			"count":540,
			"type":"SCALAR"
		},
		{
			"bufferView":20,
			"componentType":5126,
			"count":108,
			"max":[
				-0.012041594833135605,
				0.0022499999031424522,
				-0.05350000038743019
			],
			"min":[
				-0.012500000186264515,
				-0.0022499999031424522,
				-0.05950000137090683
			],
			"type":"VEC3"
		},
		{
			"bufferView":21,
			"componentType":5126,
			"count":108,
			"type":"VEC3"
		},
		{
			"bufferView":22,
			"componentType":5126,
			"count":108,
			"type":"VEC2"
		},
		{
			"bufferView":23,
			"componentType":5123,
			"count":108,
			"type":"SCALAR"
		}
	],
	"bufferViews":[
		{
			"buffer":0,
			"byteLength":84456,
			"byteOffset":0,
			"target":34962
		},
		{
			"buffer":0,
			"byteLength":84456,
			"byteOffset":84456,
			"target":34962
		},
		{
			"buffer":0,
			"byteLength":56304,
			"byteOffset":168912,
			"target":34962
		},
		{
			"buffer":0,
			"byteLength":14076,
			"byteOffset":225216,
			"target":34963
		},
		{
			"buffer":0,
			"byteLength":335664,
			"byteOffset":239292,
			"target":34962
		},
		{
			"buffer":0,
			"byteLength":335664,
			"byteOffset":574956,
			"target":34962
		},
		{
			"buffer":0,
			"byteLength":223776,
			"byteOffset":910620,
			"target":34962
		},
		{
			"buffer":0,
			"byteLength":55944,
			"byteOffset":1134396,
			"target":34963
		},
		{
			"buffer":0,
			"byteLength":5040,
			"byteOffset":1190340,
			"target":34962
		},
		{
			"buffer":0,
			"byteLength":5040,
			"byteOffset":1195380,
			"target":34962
		},
		{
			"buffer":0,
			"byteLength":3360,
			"byteOffset":1200420,
			"target":34962
		},
		{
			"buffer":0,
			"byteLength":840,
			"byteOffset":1203780,
			"target":34963
		},
		{
			"buffer":0,
			"byteLength":51984,
			"byteOffset":1204620,
			"target":34962
		},
		{
			"buffer":0,
			"byteLength":51984,
			"byteOffset":1256604,
			"target":34962
		},
		{
			"buffer":0,
			"byteLength":34656,
			"byteOffset":1308588,
			"target":34962
		},
		{
			"buffer":0,
			"byteLength":8664,
			"byteOffset":1343244,
			"target":34963
		},
		{
			"buffer":0,
			"byteLength":6480,
			"byteOffset":1351908,
			"target":34962
		},
		{
			"buffer":0,
			"byteLength":6480,
			"byteOffset":1358388,
			"target":34962
		},
		{
			"buffer":0,
			"byteLength":4320,
			"byteOffset":1364868,
			"target":34962
		},
		{
			"buffer":0,
			"byteLength":1080,
			"byteOffset":1369188,
			"target":34963
		},
		{
			"buffer":0,
			"byteLength":1296,
			"byteOffset":1370268,
			"target":34962
		},
		{
			"buffer":0,
			"byteLength":1296,
			"byteOffset":1371564,
			"target":34962
		},
		{
			"buffer":0,
			"byteLength":864,
			"byteOffset":1372860,
			"target":34962
		},
		{
			"buffer":0,
			"byteLength":216,
			"byteOffset":1373724,
			"target":34963
		}
	],
	"samplers":[
		{
			"magFilter":9729,
			"minFilter":9987
		}
	],
	"buffers":[
		{
			"byteLength":1373940,
			"uri":"vg_2_visual.bin"
		}
	]
}
