{
	"asset":{
		"generator":"Khronos glTF Blender I/O v4.4.56",
		"version":"2.0"
	},
	"scene":0,
	"scenes":[
		{
			"name":"Scene",
			"nodes":[
				0
			]
		}
	],
	"nodes":[
		{
			"mesh":0,
			"name":"assembly_conveyor"
		}
	],
	"materials":[
		{
			"name":"redlowglossplastic.001",
			"pbrMetallicRoughness":{
				"baseColorTexture":{
					"index":0
				},
				"metallicFactor":0,
				"roughnessFactor":0.699999988079071
			}
		},
		{
			"name":"greenlowglossplastic.001",
			"pbrMetallicRoughness":{
				"baseColorTexture":{
					"index":1
				},
				"metallicFactor":0,
				"roughnessFactor":0.699999988079071
			}
		},
		{
			"name":"bluelowglossplastic.001",
			"pbrMetallicRoughness":{
				"baseColorTexture":{
					"index":2
				},
				"metallicFactor":0,
				"roughnessFactor":0.699999988079071
			}
		}
	],
	"meshes":[
		{
			"name":"Mesh_0.001",
			"primitives":[
				{
					"attributes":{
						"POSITION":0,
						"NORMAL":1,
						"TEXCOORD_0":2
					},
					"indices":3,
					"material":0
				},
				{
					"attributes":{
						"POSITION":4,
						"NORMAL":5,
						"TEXCOORD_0":6
					},
					"indices":7,
					"material":1
				},
				{
					"attributes":{
						"POSITION":8,
						"NORMAL":9,
						"TEXCOORD_0":10
					},
					"indices":11,
					"material":2
				}
			]
		}
	],
	"textures":[
		{
			"sampler":0,
			"source":0
		},
		{
			"sampler":0,
			"source":1
		},
		{
			"sampler":0,
			"source":0
		}
	],
	"images":[
		{
			"mimeType":"image/png",
			"name":"black_color",
			"uri":"textures/black_color.png"
		},
		{
			"mimeType":"image/png",
			"name":"metal_assembly_conveyor",
			"uri":"textures/metal_assembly_conveyor.png"
		}
	],
	"accessors":[
		{
			"bufferView":0,
			"componentType":5126,
			"count":74,
			"max":[
				2.0250000953674316,
				0.5099999904632568,
				0.41999998688697815
			],
			"min":[
				-0.009999999776482582,
				-0.10000000149011612,
				0.4000000059604645
			],
			"type":"VEC3"
		},
		{
			"bufferView":1,
			"componentType":5126,
			"count":74,
			"type":"VEC3"
		},
		{
			"bufferView":2,
			"componentType":5126,
			"count":74,
			"type":"VEC2"
		},
		{
			"bufferView":3,
			"componentType":5123,
			"count":144,
			"type":"SCALAR"
		},
		{
			"bufferView":4,
			"componentType":5126,
			"count":1539,
			"max":[
				2.049999952316284,
				0.5249999761581421,
				0.41999998688697815
			],
			"min":[
				-0.009999999776482582,
				-0.10000000149011612,
				0
			],
			"type":"VEC3"
		},
		{
			"bufferView":5,
			"componentType":5126,
			"count":1539,
			"type":"VEC3"
		},
		{
			"bufferView":6,
			"componentType":5126,
			"count":1539,
			"type":"VEC2"
		},
		{
			"bufferView":7,
			"componentType":5123,
			"count":2538,
			"type":"SCALAR"
		},
		{
			"bufferView":8,
			"componentType":5126,
			"count":644,
			"max":[
				2.049999952316284,
				0.5249999761581421,
				0.6000000238418579
			],
			"min":[
				1.8899999856948853,
				0.2750000059604645,
				0
			],
			"type":"VEC3"
		},
		{
			"bufferView":9,
			"componentType":5126,
			"count":644,
			"type":"VEC3"
		},
		{
			"bufferView":10,
			"componentType":5126,
			"count":644,
			"type":"VEC2"
		},
		{
			"bufferView":11,
			"componentType":5123,
			"count":1320,
			"type":"SCALAR"
		}
	],
	"bufferViews":[
		{
			"buffer":0,
			"byteLength":888,
			"byteOffset":0,
			"target":34962
		},
		{
			"buffer":0,
			"byteLength":888,
			"byteOffset":888,
			"target":34962
		},
		{
			"buffer":0,
			"byteLength":592,
			"byteOffset":1776,
			"target":34962
		},
		{
			"buffer":0,
			"byteLength":288,
			"byteOffset":2368,
			"target":34963
		},
		{
			"buffer":0,
			"byteLength":18468,
			"byteOffset":2656,
			"target":34962
		},
		{
			"buffer":0,
			"byteLength":18468,
			"byteOffset":21124,
			"target":34962
		},
		{
			"buffer":0,
			"byteLength":12312,
			"byteOffset":39592,
			"target":34962
		},
		{
			"buffer":0,
			"byteLength":5076,
			"byteOffset":51904,
			"target":34963
		},
		{
			"buffer":0,
			"byteLength":7728,
			"byteOffset":56980,
			"target":34962
		},
		{
			"buffer":0,
			"byteLength":7728,
			"byteOffset":64708,
			"target":34962
		},
		{
			"buffer":0,
			"byteLength":5152,
			"byteOffset":72436,
			"target":34962
		},
		{
			"buffer":0,
			"byteLength":2640,
			"byteOffset":77588,
			"target":34963
		}
	],
	"samplers":[
		{
			"magFilter":9729,
			"minFilter":9987
		}
	],
	"buffers":[
		{
			"byteLength":80228,
			"uri":"assembly_conveyor.bin"
		}
	]
}
