{
	"asset":{
		"generator":"Khronos glTF Blender I/O v4.0.44",
		"version":"2.0"
	},
	"scene":0,
	"scenes":[
		{
			"name":"Scene",
			"nodes":[
				0
			]
		}
	],
	"nodes":[
		{
			"mesh":0,
			"name":"module_tray_shelf"
		}
	],
	"materials":[
		{
			"name":"yellow",
			"pbrMetallicRoughness":{
				"baseColorFactor":[
					0.5521045923233032,
					0.4677635133266449,
					0.03954349830746651,
					1
				],
				"metallicFactor":0
			}
		},
		{
			"name":"red",
			"pbrMetallicRoughness":{
				"baseColorFactor":[
					0,
					0,
					0,
					1
				],
				"metallicFactor":0
			}
		}
	],
	"meshes":[
		{
			"name":"Mesh_0",
			"primitives":[
				{
					"attributes":{
						"POSITION":0,
						"NORMAL":1
					},
					"indices":2,
					"material":0
				},
				{
					"attributes":{
						"POSITION":3,
						"NORMAL":4
					},
					"indices":5,
					"material":1
				}
			]
		}
	],
	"accessors":[
		{
			"bufferView":0,
			"componentType":5126,
			"count":96,
			"max":[
				0.675000011920929,
				0.07500000298023224,
				0.574999988079071
			],
			"min":[
				-0.675000011920929,
				-0.07500000298023224,
				0.10000000149011612
			],
			"type":"VEC3"
		},
		{
			"bufferView":1,
			"componentType":5126,
			"count":96,
			"type":"VEC3"
		},
		{
			"bufferView":2,
			"componentType":5123,
			"count":156,
			"type":"SCALAR"
		},
		{
			"bufferView":3,
			"componentType":5126,
			"count":540,
			"max":[
				0.675000011920929,
				0.07500000298023224,
				0.574999988079071
			],
			"min":[
				-0.675000011920929,
				-0.07500000298023224,
				0
			],
			"type":"VEC3"
		},
		{
			"bufferView":4,
			"componentType":5126,
			"count":540,
			"type":"VEC3"
		},
		{
			"bufferView":5,
			"componentType":5123,
			"count":960,
			"type":"SCALAR"
		}
	],
	"bufferViews":[
		{
			"buffer":0,
			"byteLength":1152,
			"byteOffset":0,
			"target":34962
		},
		{
			"buffer":0,
			"byteLength":1152,
			"byteOffset":1152,
			"target":34962
		},
		{
			"buffer":0,
			"byteLength":312,
			"byteOffset":2304,
			"target":34963
		},
		{
			"buffer":0,
			"byteLength":6480,
			"byteOffset":2616,
			"target":34962
		},
		{
			"buffer":0,
			"byteLength":6480,
			"byteOffset":9096,
			"target":34962
		},
		{
			"buffer":0,
			"byteLength":1920,
			"byteOffset":15576,
			"target":34963
		}
	],
	"buffers":[
		{
			"byteLength":17496,
			"uri":"module_shelf.bin"
		}
	]
}
