{
	"asset":{
		"generator":"Khronos glTF Blender I/O v4.0.44",
		"version":"2.0"
	},
	"scene":0,
	"scenes":[
		{
			"name":"Scene",
			"nodes":[
				0
			]
		}
	],
	"nodes":[
		{
			"mesh":0,
			"name":"high_priority_tray_shelf"
		}
	],
	"materials":[
		{
			"name":"yellow",
			"pbrMetallicRoughness":{
				"baseColorFactor":[
					0.5521045923233032,
					0.4677635133266449,
					0.03954349830746651,
					1
				],
				"metallicFactor":0
			}
		},
		{
			"name":"red",
			"pbrMetallicRoughness":{
				"baseColorFactor":[
					0,
					0,
					0,
					1
				],
				"metallicFactor":0
			}
		}
	],
	"meshes":[
		{
			"name":"Mesh_0",
			"primitives":[
				{
					"attributes":{
						"POSITION":0,
						"NORMAL":1
					},
					"indices":2,
					"material":0
				},
				{
					"attributes":{
						"POSITION":3,
						"NORMAL":4
					},
					"indices":5,
					"material":1
				}
			]
		}
	],
	"accessors":[
		{
			"bufferView":0,
			"componentType":5126,
			"count":90,
			"max":[
				0.3375000059604645,
				0.15000000596046448,
				0.7749999761581421
			],
			"min":[
				-0.3375000059604645,
				-0.15000000596046448,
				0.10000000149011612
			],
			"type":"VEC3"
		},
		{
			"bufferView":1,
			"componentType":5126,
			"count":90,
			"type":"VEC3"
		},
		{
			"bufferView":2,
			"componentType":5123,
			"count":156,
			"type":"SCALAR"
		},
		{
			"bufferView":3,
			"componentType":5126,
			"count":542,
			"max":[
				0.3375000059604645,
				0.15000000596046448,
				0.7749999761581421
			],
			"min":[
				-0.3375000059604645,
				-0.15000000596046448,
				0
			],
			"type":"VEC3"
		},
		{
			"bufferView":4,
			"componentType":5126,
			"count":542,
			"type":"VEC3"
		},
		{
			"bufferView":5,
			"componentType":5123,
			"count":960,
			"type":"SCALAR"
		}
	],
	"bufferViews":[
		{
			"buffer":0,
			"byteLength":1080,
			"byteOffset":0,
			"target":34962
		},
		{
			"buffer":0,
			"byteLength":1080,
			"byteOffset":1080,
			"target":34962
		},
		{
			"buffer":0,
			"byteLength":312,
			"byteOffset":2160,
			"target":34963
		},
		{
			"buffer":0,
			"byteLength":6504,
			"byteOffset":2472,
			"target":34962
		},
		{
			"buffer":0,
			"byteLength":6504,
			"byteOffset":8976,
			"target":34962
		},
		{
			"buffer":0,
			"byteLength":1920,
			"byteOffset":15480,
			"target":34963
		}
	],
	"buffers":[
		{
			"byteLength":17400,
			"uri":"high_priority_tray_shelf.bin"
		}
	]
}
