{
	"asset":{
		"generator":"Khronos glTF Blender I/O v4.4.56",
		"version":"2.0"
	},
	"scene":0,
	"scenes":[
		{
			"name":"Scene",
			"nodes":[
				0
			]
		}
	],
	"nodes":[
		{
			"mesh":0,
			"name":"circular_tool_holder.SLDPRT"
		}
	],
	"materials":[
		{
			"name":"Material_0.001",
			"pbrMetallicRoughness":{
				"baseColorFactor":[
					0.49803900718688965,
					0.49803900718688965,
					0.49803900718688965,
					1
				],
				"metallicFactor":0
			}
		},
		{
			"name":"yellow.001",
			"pbrMetallicRoughness":{
				"baseColorTexture":{
					"index":0
				},
				"metallicFactor":0
			}
		},
		{
			"name":"red.001",
			"pbrMetallicRoughness":{
				"baseColorTexture":{
					"index":1
				},
				"metallicFactor":0
			}
		},
		{
			"name":"whitesolid",
			"pbrMetallicRoughness":{
				"baseColorTexture":{
					"index":2
				},
				"metallicFactor":0
			}
		},
		{
			"name":"orange.001",
			"pbrMetallicRoughness":{
				"baseColorTexture":{
					"index":3
				},
				"metallicFactor":0
			}
		}
	],
	"meshes":[
		{
			"name":"Mesh_0.001",
			"primitives":[
				{
					"attributes":{
						"POSITION":0,
						"NORMAL":1,
						"TEXCOORD_0":2
					},
					"indices":3,
					"material":0
				},
				{
					"attributes":{
						"POSITION":4,
						"NORMAL":5,
						"TEXCOORD_0":6
					},
					"indices":7,
					"material":1
				},
				{
					"attributes":{
						"POSITION":8,
						"NORMAL":9,
						"TEXCOORD_0":10
					},
					"indices":11,
					"material":2
				},
				{
					"attributes":{
						"POSITION":12,
						"NORMAL":13,
						"TEXCOORD_0":14
					},
					"indices":15,
					"material":3
				},
				{
					"attributes":{
						"POSITION":16,
						"NORMAL":17,
						"TEXCOORD_0":18
					},
					"indices":19,
					"material":4
				}
			]
		}
	],
	"textures":[
		{
			"sampler":0,
			"source":0
		},
		{
			"sampler":0,
			"source":0
		},
		{
			"sampler":0,
			"source":1
		},
		{
			"sampler":0,
			"source":0
		}
	],
	"images":[
		{
			"mimeType":"image/png",
			"name":"Plastic011_1K-PNG_Color",
			"uri":"textures/Plastic011_1K-PNG_Color.png"
		},
		{
			"mimeType":"image/png",
			"name":"Metal009_1K-PNG_Color",
			"uri":"textures/Metal009_1K-PNG_Color.png"
		}
	],
	"accessors":[
		{
			"bufferView":0,
			"componentType":5126,
			"count":250320,
			"max":[
				0.0949988141655922,
				0.04259807616472244,
				0.16449999809265137
			],
			"min":[
				-0.0949988141655922,
				-0.04259807616472244,
				0.009999999776482582
			],
			"type":"VEC3"
		},
		{
			"bufferView":1,
			"componentType":5126,
			"count":250320,
			"type":"VEC3"
		},
		{
			"bufferView":2,
			"componentType":5126,
			"count":250320,
			"type":"VEC2"
		},
		{
			"bufferView":3,
			"componentType":5125,
			"count":250320,
			"type":"SCALAR"
		},
		{
			"bufferView":4,
			"componentType":5126,
			"count":7824,
			"max":[
				0.10498777776956558,
				0.019999999552965164,
				0.16449999809265137
			],
			"min":[
				-0.10498777776956558,
				-0.07901296764612198,
				0.11649999767541885
			],
			"type":"VEC3"
		},
		{
			"bufferView":5,
			"componentType":5126,
			"count":7824,
			"type":"VEC3"
		},
		{
			"bufferView":6,
			"componentType":5126,
			"count":7824,
			"type":"VEC2"
		},
		{
			"bufferView":7,
			"componentType":5123,
			"count":7824,
			"type":"SCALAR"
		},
		{
			"bufferView":8,
			"componentType":5126,
			"count":1188,
			"max":[
				0.019999999552965164,
				0.04500000178813934,
				0.21299999952316284
			],
			"min":[
				-0.019999999552965164,
				0.02500000037252903,
				0.20999999344348907
			],
			"type":"VEC3"
		},
		{
			"bufferView":9,
			"componentType":5126,
			"count":1188,
			"type":"VEC3"
		},
		{
			"bufferView":10,
			"componentType":5126,
			"count":1188,
			"type":"VEC2"
		},
		{
			"bufferView":11,
			"componentType":5123,
			"count":1188,
			"type":"SCALAR"
		},
		{
			"bufferView":12,
			"componentType":5126,
			"count":1314,
			"max":[
				0.05000000074505806,
				0.05000000074505806,
				0.20999999344348907
			],
			"min":[
				-0.05000000074505806,
				-0.05000000074505806,
				0
			],
			"type":"VEC3"
		},
		{
			"bufferView":13,
			"componentType":5126,
			"count":1314,
			"type":"VEC3"
		},
		{
			"bufferView":14,
			"componentType":5126,
			"count":1314,
			"type":"VEC2"
		},
		{
			"bufferView":15,
			"componentType":5123,
			"count":1314,
			"type":"SCALAR"
		},
		{
			"bufferView":16,
			"componentType":5126,
			"count":36,
			"max":[
				0.019999999552965164,
				0.02500000037252903,
				0.16200000047683716
			],
			"min":[
				-0.019999999552965164,
				0.019999999552965164,
				0.06199999898672104
			],
			"type":"VEC3"
		},
		{
			"bufferView":17,
			"componentType":5126,
			"count":36,
			"type":"VEC3"
		},
		{
			"bufferView":18,
			"componentType":5126,
			"count":36,
			"type":"VEC2"
		},
		{
			"bufferView":19,
			"componentType":5123,
			"count":36,
			"type":"SCALAR"
		}
	],
	"bufferViews":[
		{
			"buffer":0,
			"byteLength":3003840,
			"byteOffset":0,
			"target":34962
		},
		{
			"buffer":0,
			"byteLength":3003840,
			"byteOffset":3003840,
			"target":34962
		},
		{
			"buffer":0,
			"byteLength":2002560,
			"byteOffset":6007680,
			"target":34962
		},
		{
			"buffer":0,
			"byteLength":1001280,
			"byteOffset":8010240,
			"target":34963
		},
		{
			"buffer":0,
			"byteLength":93888,
			"byteOffset":9011520,
			"target":34962
		},
		{
			"buffer":0,
			"byteLength":93888,
			"byteOffset":9105408,
			"target":34962
		},
		{
			"buffer":0,
			"byteLength":62592,
			"byteOffset":9199296,
			"target":34962
		},
		{
			"buffer":0,
			"byteLength":15648,
			"byteOffset":9261888,
			"target":34963
		},
		{
			"buffer":0,
			"byteLength":14256,
			"byteOffset":9277536,
			"target":34962
		},
		{
			"buffer":0,
			"byteLength":14256,
			"byteOffset":9291792,
			"target":34962
		},
		{
			"buffer":0,
			"byteLength":9504,
			"byteOffset":9306048,
			"target":34962
		},
		{
			"buffer":0,
			"byteLength":2376,
			"byteOffset":9315552,
			"target":34963
		},
		{
			"buffer":0,
			"byteLength":15768,
			"byteOffset":9317928,
			"target":34962
		},
		{
			"buffer":0,
			"byteLength":15768,
			"byteOffset":9333696,
			"target":34962
		},
		{
			"buffer":0,
			"byteLength":10512,
			"byteOffset":9349464,
			"target":34962
		},
		{
			"buffer":0,
			"byteLength":2628,
			"byteOffset":9359976,
			"target":34963
		},
		{
			"buffer":0,
			"byteLength":432,
			"byteOffset":9362604,
			"target":34962
		},
		{
			"buffer":0,
			"byteLength":432,
			"byteOffset":9363036,
			"target":34962
		},
		{
			"buffer":0,
			"byteLength":288,
			"byteOffset":9363468,
			"target":34962
		},
		{
			"buffer":0,
			"byteLength":72,
			"byteOffset":9363756,
			"target":34963
		}
	],
	"samplers":[
		{
			"magFilter":9729,
			"minFilter":9987
		}
	],
	"buffers":[
		{
			"byteLength":9363828,
			"uri":"tool_holder.bin"
		}
	]
}
